<?xml version="1.0" encoding="iso-8859-1"?>
<!-- Uploaded to: SVG Repo, www.svgrepo.com, Generator: SVG Repo Mixer Tools -->
<svg height="800px" width="800px" version="1.1" id="Capa_1" xmlns="http://www.w3.org/2000/svg" xmlns:xlink="http://www.w3.org/1999/xlink" 
	 viewBox="0 0 20.961 20.961" xml:space="preserve">
<g>
	<path fill="currentColor" d="M14.504,4.032c-1.704,0-3.335,0.678-4.542,1.874C9.568,5.802,9.166,5.749,8.764,5.749
		c-1.428,0-2.767,0.641-3.664,1.732C4.979,7.47,4.858,7.464,4.74,7.464C2.126,7.464,0,9.592,0,12.206
		c0,2.446,1.834,4.475,4.267,4.717h8.423c0.01,0.001,0.017,0.006,0.026,0.006h1.264h0.003h0.251c0.001,0,0.002-0.001,0.002-0.001
		l0.65,0.001l0.022-0.002c3.395-0.211,6.053-3.04,6.053-6.438C20.961,6.93,18.065,4.032,14.504,4.032z M14.84,15.493h-0.597
		c-0.003,0-0.006-0.002-0.01-0.002h-0.251H13.98h-1.265c-0.002,0-0.002,0-0.002,0H4.375c-1.679-0.184-2.939-1.59-2.939-3.284
		c0-1.823,1.482-3.306,3.304-3.306c0.175,0,0.359,0.017,0.564,0.053l0.458,0.078l0.26-0.384c0.834-1.242,2.455-1.792,3.903-1.25
		l0.466,0.175l0.328-0.375c0.957-1.1,2.336-1.729,3.786-1.729c2.769,0,5.021,2.253,5.021,5.021
		C19.525,13.124,17.469,15.317,14.84,15.493z"/>
</g>
</svg>