<svg xmlns="http://www.w3.org/2000/svg" fill="currentColor" viewBox="0 0 100 100">
 <path d="m67.531 36.637c1.6289 1.6289 1.6289 4.2656 0 5.8906l-20.836 20.836c-0.78125 0.78125-1.8398 1.2227-2.9453 1.2227s-2.1641-0.44141-2.9453-1.2227l-8.332-8.3359c-1.6289-1.625-1.6289-4.2656 0-5.8906 1.6289-1.6289 4.2656-1.6289 5.8906 0l5.3867 5.3906 17.891-17.891c1.625-1.6289 4.2617-1.6289 5.8906 0zm24.137 13.363c0 22.977-18.691 41.668-41.668 41.668s-41.668-18.691-41.668-41.668 18.691-41.668 41.668-41.668 41.668 18.691 41.668 41.668zm-8.332 0c0-18.379-14.953-33.332-33.336-33.332-18.379 0-33.332 14.953-33.332 33.332 0 18.383 14.953 33.336 33.332 33.336s33.336-14.957 33.336-33.336z"/>
</svg>